<?xml version="1.0" standalone="yes"?>
<svg xmlns="http://www.w3.org/2000/svg" width="263" height="263" viewBox="8.5 0 263 263">
<defs>
  <clipPath id="circle-clip">
    <circle cx="140.0" cy="131.5" r="129.5"/>
  </clipPath>
</defs>
<g clip-path="url(#circle-clip)">


<path style="fill:#793d15; stroke:none;" d="M132 6C136.217 7.76932 141.459 7 146 7C141.783 5.23068 136.541 6 132 6M120 7C121.769 7.77895 123.036 7.91241 125 8C123.231 7.22107 121.964 7.08759 120 7z"/>
<path style="fill:#151515; stroke:none;" d="M125 7.42516C105.271 10.1108 86.8337 15.9903 70 26.8642C56.3086 35.7083 43.9337 47.497 34.7461 61C0.190079 111.787 8.15327 183.564 54 224.829C81.9103 249.951 120.08 260.565 157 255.711C173.293 253.568 188.837 247.382 203 239.28C215.956 231.868 227.411 221.757 236.576 210C278.889 155.718 270.417 74.8103 215 32.5031C202.16 22.7002 187.475 15.7328 172 11.2909C157.285 7.06702 140.238 5.35089 125 7.42516z"/>
<path style="fill:#793d15; stroke:none;" d="M151 7C152.769 7.77893 154.036 7.91241 156 8C154.231 7.22105 152.964 7.0876 151 7M115 8C116.248 8.6848 116.548 8.74878 118 9C116.752 8.31525 116.451 8.25119 115 8M159 8C160.248 8.68477 160.548 8.74879 162 9C160.752 8.3152 160.452 8.25122 159 8M110.667 9.33333C110.222 9.77782 111.278 9.72224 111.333 9.66667C111.778 9.22224 110.722 9.27777 110.667 9.33333M165.667 9.33333C165.222 9.77779 166.278 9.72224 166.333 9.66667C166.778 9.22221 165.722 9.27779 165.667 9.33333M106.667 10.3333C106.222 10.7778 107.278 10.7223 107.333 10.6667C107.778 10.2223 106.722 10.2778 106.667 10.3333M169.667 10.3333C169.222 10.7778 170.278 10.7222 170.333 10.6667C170.778 10.2222 169.722 10.2777 169.667 10.3333M103 11L104 12L103 11M132 11C135.697 12.5515 140.017 12 144 12C140.303 10.4485 135.983 11 132 11M172.667 11.3333C172.222 11.7778 173.278 11.7222 173.333 11.6667C173.778 11.2223 172.722 11.2777 172.667 11.3333M99.6667 12.3333C99.2221 12.7779 100.278 12.7222 100.333 12.6667C100.778 12.2222 99.7222 12.2778 99.6667 12.3333M122 12C124.052 12.8743 125.747 12.9528 128 13C125.948 12.1258 124.253 12.0472 122 12z"/>
<path style="fill:#ffd301; stroke:none;" d="M128 12.4244C106.29 15.3099 86.0122 21.4994 68 34.4282C55.2743 43.5626 43.7974 55.4052 35.875 69C24.8925 87.8457 18.295 109.062 18.0185 131C17.1066 203.354 83.4078 259.497 154 250.714C170.828 248.62 186.363 242.671 201 234.28C211.255 228.401 219.904 220.56 227.975 211.996C235.522 203.989 241.342 194.81 246.247 185C280.053 117.388 239.701 30.4984 165 15.0031C152.984 12.5106 140.262 10.7946 128 12.4244z"/>
<path style="fill:#793d15; stroke:none;" d="M149 12C151.052 12.8743 152.747 12.9528 155 13C152.948 12.1258 151.253 12.0472 149 12M176.667 12.3333C176.222 12.7779 177.278 12.7222 177.333 12.6667C177.778 12.2222 176.722 12.2777 176.667 12.3333M96.6667 13.3333C96.2222 13.7778 97.2778 13.7222 97.3333 13.6667C97.7777 13.2223 96.7222 13.2778 96.6667 13.3333M116 13C117.506 13.683 118.315 13.8259 120 14C118.494 13.317 117.685 13.1741 116 13M157 13C158.506 13.683 159.315 13.8259 161 14C159.494 13.317 158.685 13.1741 157 13M179.667 13.3333C179.222 13.7778 180.278 13.7222 180.333 13.6667C180.778 13.2222 179.722 13.2778 179.667 13.3333M94 14L95 15L94 14M111 14C112.248 14.6848 112.548 14.7488 114 15C112.752 14.3152 112.452 14.2512 111 14M162 14C163.506 14.683 164.315 14.8259 166 15C164.494 14.317 163.685 14.1741 162 14M182 14L183 15L182 14M91 15L92 16L91 15M106 15C107.506 15.683 108.315 15.8259 110 16C108.494 15.317 107.685 15.1741 106 15M167 15C168.248 15.6848 168.549 15.7488 170 16C168.752 15.3152 168.452 15.2512 167 15M184.667 15.3333C184.222 15.7778 185.278 15.7222 185.333 15.6667C185.778 15.2222 184.722 15.2777 184.667 15.3333M89 16L90 17L89 16M103 16C104.248 16.6848 104.548 16.7488 106 17C104.752 16.3152 104.451 16.2512 103 16M171.667 16.3333C171.222 16.7778 172.278 16.7222 172.333 16.6667C172.778 16.2222 171.722 16.2778 171.667 16.3333M187 16L188 17L187 16M86.6667 17.3333C86.2222 17.7778 87.2778 17.7222 87.3333 17.6667C87.7778 17.2222 86.7222 17.2778 86.6667 17.3333M100.667 17.3333C100.222 17.7778 101.278 17.7222 101.333 17.6667C101.778 17.2222 100.722 17.2778 100.667 17.3333M174.667 17.3333C174.222 17.7778 175.278 17.7222 175.333 17.6667C175.778 17.2222 174.722 17.2777 174.667 17.3333M189.667 17.3333C189.222 17.7779 190.278 17.7222 190.333 17.6667C190.778 17.2222 189.722 17.2777 189.667 17.3333M84.6667 18.3333C84.2221 18.7779 85.2778 18.7222 85.3333 18.6667C85.7777 18.2222 84.7222 18.2778 84.6667 18.3333M97 18C98.2484 18.6848 98.5483 18.7488 100 19C98.7517 18.3152 98.4515 18.2512 97 18M177.667 18.3333C177.222 18.7778 178.278 18.7222 178.333 18.6667C178.778 18.2222 177.722 18.2777 177.667 18.3333M191.667 18.3333C191.222 18.7778 192.278 18.7222 192.333 18.6667C192.778 18.2222 191.722 18.2778 191.667 18.3333M82 19L83 20L82 19M95.6667 19.3333C95.2222 19.7778 96.2778 19.7222 96.3333 19.6667C96.7777 19.2223 95.7222 19.2778 95.6667 19.3333M180 19C181.248 19.6848 181.549 19.7488 183 20C181.752 19.3152 181.452 19.2512 180 19M193.667 19.3333C193.222 19.7778 194.278 19.7222 194.333 19.6667C194.778 19.2222 193.722 19.2778 193.667 19.3333M80.6667 20.3333C80.2222 20.7778 81.2778 20.7222 81.3333 20.6667C81.7777 20.2223 80.7223 20.2777 80.6667 20.3333M92.6667 20.3333C92.2222 20.7778 93.2778 20.7223 93.3333 20.6667C93.7777 20.2222 92.7222 20.2778 92.6667 20.3333M183.667 20.3333C183.222 20.7778 184.278 20.7222 184.333 20.6667C184.778 20.2222 183.722 20.2777 183.667 20.3333M196 20L197 21L196 20M78 21L79 22L78 21M90.6667 21.3333C90.2222 21.7778 91.2778 21.7222 91.3333 21.6667C91.7778 21.2222 90.7222 21.2777 90.6667 21.3333M185.667 21.3333C185.222 21.7778 186.278 21.7222 186.333 21.6667C186.778 21.2222 185.722 21.2778 185.667 21.3333M197.667 21.3333C197.222 21.7778 198.278 21.7222 198.333 21.6667C198.778 21.2222 197.722 21.2778 197.667 21.3333M77 22L78 23L77 22M88 22L89 23L88 22M187.667 22.3333C187.222 22.7778 188.278 22.7222 188.333 22.6667C188.778 22.2222 187.722 22.2778 187.667 22.3333M199 22L200 23L199 22M75 23L76 24L75 23M86 23L87 24L86 23M190 23L191 24L190 23M201 23L202 24L201 23M73 24L74 25L73 24M84 24L85 25L84 24M192 24L193 25L192 24M203 24L204 25L203 24M72 25L73 26L72 25M82 25L83 26L82 25M194 25L195 26L194 25M204 25L205 26L204 25M70 26L71 27L70 26M80 26L81 27L80 26M196 26L197 27L196 26M206 26L207 27L206 26M68 27L69 28L68 27M78.6667 27.3333C78.2222 27.7778 79.2778 27.7222 79.3333 27.6667C79.7778 27.2222 78.7222 27.2778 78.6667 27.3333M148 29C150.956 30.0603 153.877 29.2371 157 29.0247C164.054 28.545 170.907 28 178 28C169.519 24.4414 156.85 27.8815 148 29M198 27L199 28L198 27M207 27L208 28L207 27M67 28L68 29L67 28M77 28L78 29L77 28z"/>
<path style="fill:#151515; stroke:none;" d="M132 38C144.167 31.5994 155.405 30.0639 169 29.9992C173.396 29.9783 178.868 28.4721 182.775 31.0934C186.731 33.7467 186.797 38.7479 187.035 43C187.55 52.1827 189.663 62.0131 187 71L183 70C187.396 76.1445 191.128 80.3076 199 81C191.735 90.7642 177.328 81.9149 179 71C171.82 76.0951 181.235 83.4023 185.995 86.0201C187.639 86.9241 189.925 87.6241 190.843 89.4182C191.899 91.4795 190.536 93.9018 190.298 96C189.996 98.6612 190.668 101.368 191 104C185.465 104.242 181.541 105.87 177 109C175.571 103.491 174.397 97.8398 171.034 93.0934C165.021 84.607 148.709 81.6269 140.468 88.652C130.94 96.7739 133.292 111.946 143.015 118.66C146.068 120.767 149.394 121.512 153 122C147.935 127.078 142.648 132.183 138.428 138.004C135.441 142.125 133.504 146.923 130.458 150.96C122.463 161.553 113.215 169.344 108 182C110.954 182 109 186.339 109 189C110.585 186.48 111.328 183.9 112 181C115.893 192.407 118.628 201.597 129 209C113.969 212.889 91.4273 213.434 84.5594 196C80.1433 184.79 82.7139 172.192 77.5316 161.054C75.3432 156.351 70.3326 153.23 67.3009 149C60.3958 139.366 56.0079 128.881 56 117C50.9607 129.009 59.9543 144.685 66.8958 154C70.206 158.442 74.1001 162.568 75.696 168C77.9961 175.829 77.2718 184.253 79.7855 192C81.5846 197.545 85.7311 201.805 84.9676 208C84.1876 214.328 72.0538 222.684 76.6188 228.721C82.1994 236.102 96.2305 232.032 103 229.127C109.965 226.139 116.075 221.49 123 218.44C132.996 214.036 144.204 211.628 155 210.285C167.9 208.68 180.383 209.037 193 205.421C196.969 204.284 202.553 203.249 205.638 200.306C206.993 199.012 207.747 196.607 205.547 195.696C202.4 194.392 198.445 197.15 195 196.322C183.959 193.667 179.874 182.291 186.214 173.225C191.461 165.719 204.553 166.289 211.211 159.907C214.869 156.399 213.993 152.158 216.022 148C218.801 142.308 222.723 138.623 223.699 132C224.273 128.103 222.928 123.223 224.46 119.576C227.743 111.76 234.156 106.436 231.196 97C228.999 89.9951 222.324 88.956 218 84C213.747 86.7677 207.828 84.2696 211 79C207.75 78.0415 205.232 80.1643 202 79.7878C198.428 79.3716 193.713 74.8797 192.028 71.8302C190.183 68.4921 191.04 63.6698 190.996 60C190.904 52.2512 191.695 38.9755 187.686 32.1474C184.94 27.4696 177.674 28.0075 173 28C160.821 27.9804 140.246 27.565 132 38z"/>
<path style="fill:#793d15; stroke:none;" d="M181 28C182.769 28.7789 184.036 28.9124 186 29C184.231 28.2211 182.964 28.0876 181 28M199.667 28.3333C199.222 28.7778 200.278 28.7222 200.333 28.6667C200.778 28.2222 199.722 28.2778 199.667 28.3333M209 28L210 29L209 28M66 29L67 30L66 29M75 29L76 30L75 29M131 37C129.494 43.3258 129.054 50.494 129 57L117 57C121.416 58.853 128.284 59.1706 130 54C130.819 56.9688 130.696 58.9979 130 62C116.533 58.0106 105.555 64.5397 93 68C97.7928 65.2026 102.742 62.7903 108 61C104.473 60.2705 101.205 62.1391 98 63.6404C89.6341 67.5595 83.1863 75.2264 75 78.8511C69.9398 81.0916 66.252 78.1824 62 83C67.1033 80.4529 69.5129 80.2459 74 84C69.073 87.0773 65.469 92.8099 63 98C62.4153 96.2458 62.3318 97.0046 63 95C61.0913 96.8797 60.0886 98.5424 59 101C60.1952 99.7772 60.3164 99.58 61 98C60.9645 100.192 60.5953 101.868 60 104C58.9774 102.466 59.1954 102.598 58 102C52.6669 118.679 56.941 134.668 66.598 149C69.5762 153.42 74.6611 156.398 77.0841 161.054C82.9519 172.329 80.0179 185.475 84.5594 197C90.9609 213.245 114.939 213.76 129 209C120.852 200.861 114.043 192.963 113 181C111.126 183.516 110.465 185.903 110 189C109.364 186.546 110.474 182.436 108 182C110.524 177.678 112.512 173.025 115.515 169C120.067 162.897 125.819 157.847 130.458 151.907C134.317 146.964 136.69 141.004 140.654 136.039C144.558 131.149 149.394 127.124 153 122C149.302 121.224 146.089 120.246 143.015 117.942C140.794 116.277 138.801 114.353 137.367 111.961C124.904 91.1824 155.203 76.0405 169.61 92.1844C173.833 96.9174 175.023 103.209 177 109C181.77 106.677 185.605 104.445 191 104C190.794 101.367 190.167 98.6352 190.545 96C190.847 93.8891 192.193 91.5607 191.343 89.4182C188.915 83.2985 170.253 80.6799 179 71L178 74C180.317 72.9232 182.625 72.4564 183 70L187 71C189.094 65.9374 188.029 61.3406 188.001 56C187.968 49.6658 188.881 37.6641 184.91 32.419C181.373 27.7469 174.881 29.8661 170 29.9853C161.764 30.1866 154.086 29.9549 146 31.8843C140.848 33.1135 136.107 36.1566 131 37M186 29L187 30L186 29M201 29L202 30L201 29M210 29L211 30L210 29M64 30L65 31L64 30M73 30L74 31L73 30M143 30C144.506 30.683 145.315 30.8259 147 31C145.494 30.317 144.685 30.1741 143 30M187 30L188 31L187 30M202.667 30.3333C202.222 30.7778 203.278 30.7222 203.333 30.6667C203.778 30.2222 202.722 30.2778 202.667 30.3333M212 30L213 31L212 30M63 31L64 32L63 31M72 31L73 32L72 31M140 31C141.248 31.6848 141.549 31.7488 143 32C141.752 31.3152 141.452 31.2512 140 31z"/>
<path style="fill:#c91f1f; stroke:none;" d="M126 91C132.381 88.6602 137.216 84.0119 143.039 80.6651C150.172 76.5655 158.99 73.2799 167 71.4282C171.741 70.3322 182.887 71.6019 185.972 67.436C188.518 63.9993 187.216 55.0583 186.83 51C186.325 45.6948 187.109 36.4686 182.581 32.7423C179.36 30.0919 173.871 31 170 31C159.965 31 143.746 30.2747 135.573 37.3403C131.603 40.7721 132.046 49.1924 132 54C131.878 66.6301 126.566 78.6062 126 91z"/>
<path style="fill:#793d15; stroke:none;" d="M204 31L205 32L204 31M213 31L214 32L213 31M70 32L71 33L70 32M137 32C138.248 32.6848 138.548 32.7488 140 33C138.752 32.3152 138.452 32.2512 137 32M188.333 32.6667C188.278 32.7222 188.222 33.7778 188.667 33.3333C188.722 33.2778 188.778 32.2222 188.333 32.6667M205.667 32.3333C205.222 32.7778 206.278 32.7222 206.333 32.6667C206.778 32.2222 205.722 32.2778 205.667 32.3333M60 33L61 34L60 33M69 33L70 34L69 33M135.667 33.3333C135.222 33.7778 136.278 33.7222 136.333 33.6667C136.778 33.2222 135.722 33.2778 135.667 33.3333M207 33L208 34L207 33M216 33L217 34L216 33M59 34L60 35L59 34M67 34L68 35L67 34M134 34L135 35L134 34M189 34L189 39C189.83 36.9695 189.83 36.0305 189 34M209 34L210 35L209 34M217 34L218 35L217 34M66 35L67 36L66 35M132 35L132 37C133.635 36.4549 133.455 36.6351 134 35L132 35M210 35L211 36L210 35M218 35L219 36L218 35M57 36L58 37L57 36M64.6667 36.3333C64.2222 36.7778 65.2778 36.7222 65.3333 36.6667C65.7778 36.2222 64.7222 36.2778 64.6667 36.3333M211 36L212 37L211 36M219 36L220 37L219 36M63 37L64 38L63 37M212 37C213.223 38.1952 213.42 38.3164 215 39C213.777 37.8048 213.58 37.6836 212 37M54 38L55 39L54 38M62 38L63 39L62 38M222 38L223 39L222 38M53 39L54 40L53 39M61 39L62 40L61 39z"/>
<path style="fill:#151515; stroke:none;" d="M131 39L131 45C131.951 42.7147 131.951 41.2853 131 39z"/>
<path style="fill:#793d15; stroke:none;" d="M215 39L216 40L215 39M223 39L224 40L223 39M52 40L53 41L52 40M60 40L61 41L60 40M216 40L217 41L216 40M224 40L225 41L224 40M51 41L52 42L51 41M58.6667 41.3333C58.2222 41.7778 59.2778 41.7222 59.3333 41.6667C59.7779 41.2221 58.7222 41.2778 58.6667 41.3333M190 41L190 54C191.591 50.2087 191.591 44.7913 190 41M217 41L218 42L217 41M225 41L226 42L225 41M50 42L51 43L50 42M57 42L58 43L57 42M218 42L219 43L218 42M226 42L227 43L226 42M49 43L50 44L49 43M56 43L57 44L56 43M227 43L228 44L227 43M48 44L49 45L48 44M55 44L56 45L55 44M221 44L221 46L223 46C222.455 44.3649 222.635 44.545 221 44M228 44L229 45L228 44M47 45L48 46L47 45M54 45L55 46L54 45M229 45L230 46L229 45M46 46L47 47L46 46M53 46L54 47L53 46M223 46L224 47L223 46M230 46L231 47L230 46M45 47L46 48L45 47M52 47L53 48L52 47M224 47L225 48L224 47M231 47L232 48L231 47M44 48L45 49L44 48M51 48L52 49L51 48M225 48L226 49L225 48M232 48L233 49L232 48M43.3333 49.6667C43.2777 49.7223 43.2222 50.7778 43.6667 50.3333C43.7222 50.2778 43.7778 49.2222 43.3333 49.6667M50 49L51 50L50 49M226 49L227 50L226 49M49 50L50 51L49 50M227 50L228 51L227 50M48 51L49 52L48 51M228.333 51.6667C228.278 51.7222 228.222 52.7778 228.667 52.3333C228.722 52.2777 228.778 51.2222 228.333 51.6667M41 52L42 53L41 52M235 52L236 53L235 52M40 53L41 54L40 53M47 53L48 54L47 53M229 53L230 54L229 53M236 53L237 54L236 53M39 54L40 55L39 54M46 54L47 55L46 54z"/>
<path style="fill:#151515; stroke:none;" d="M130 54C126.978 59.4805 121.364 57.4481 116 58.3248C107.79 59.6668 100.562 63.8518 93 67C97.4615 68.2367 101.757 64.8026 106 63.5108C114.058 61.0576 121.714 60.0262 130 62C130.864 59.0604 131.188 56.8519 130 54z"/>
<path style="fill:#793d15; stroke:none;" d="M230 54L231 55L230 54M237 54L238 55L237 54M45 55L46 56L45 55M231 55L232 56L231 55M44 56L45 57L44 56M191 56L191 73C192.883 68.5135 192.883 60.4865 191 56M232 56L233 57L232 56M238 56L239 57L238 56M37 57L38 58L37 57M43.3333 57.6667C43.2777 57.7223 43.2222 58.7778 43.6667 58.3333C43.7222 58.2778 43.7778 57.2222 43.3333 57.6667M233.333 57.6667C233.278 57.7222 233.222 58.7778 233.667 58.3333C233.722 58.2777 233.778 57.2223 233.333 57.6667M239 57L240 58L239 57M36 58L37 59L36 58M112 58C113.248 58.6848 113.548 58.7488 115 59C113.752 58.3152 113.452 58.2512 112 58M240 58L241 59L240 58M42 59L43 60L42 59M109 59C110.248 59.6848 110.548 59.7488 112 60C110.752 59.3152 110.451 59.2512 109 59M234 59L235 60L234 59M41 60L42 61L41 60M235 60L236 61L235 60M241 60L242 61L241 60M34 61L35 62L34 61M40.3333 61.6667C40.2777 61.7223 40.2223 62.7777 40.6667 62.3333C40.7222 62.2778 40.7778 61.2222 40.3333 61.6667M236.333 61.6667C236.278 61.7222 236.222 62.7778 236.667 62.3333C236.722 62.2777 236.778 61.2223 236.333 61.6667M242 61L243 62L242 61z"/>
<path style="fill:#c91f1f; stroke:none;" d="M127 62C99.1494 62 75.4221 77.7299 62.0401 102C54.9521 114.855 56.8663 128.432 63.4136 141C65.5461 145.094 68.2729 150.915 72.3287 153.467C75.5476 155.492 78.382 153.357 81 151.38C86.6108 147.144 92.0796 142.507 96.4861 137C113.15 116.176 126.925 89.2792 127 62z"/>
<path style="fill:#793d15; stroke:none;" d="M39 63L40 64L39 63M237 63L238 64L237 63M32 64L33 65L32 64M38 64L39 65L38 64M238.333 64.6667C238.278 64.7222 238.222 65.7778 238.667 65.3333C238.722 65.2778 238.778 64.2222 238.333 64.6667M244 64L245 65L244 64M37.3333 65.6667C37.2778 65.7222 37.2222 66.7778 37.6667 66.3333C37.7222 66.2778 37.7778 65.2222 37.3333 65.6667M31 66L32 67L31 66M239 66L240 67L239 66M245 66L246 67L245 66M30 67L31 68L30 67M36 67L37 68L36 67M246 67L247 68L246 67z"/>
<path style="fill:#151515; stroke:none;" d="M92 68C89.6318 69.5269 87.8143 70.8595 86 73C88.4819 71.8366 90.7092 70.5098 93 69L92 68z"/>
<path style="fill:#793d15; stroke:none;" d="M240 68L241 69L240 68M29 69L30 70L29 69M35 69L36 70L35 69M241 69L242 70L241 69M247 69L248 70L247 69M28 71L29 72L28 71M34 71L35 72L34 71M242 71L243 72L242 71M248 71L249 72L248 71M27.3333 72.6667C27.2778 72.7222 27.2223 73.7777 27.6667 73.3333C27.7222 73.2778 27.7778 72.2222 27.3333 72.6667M33.3333 72.6667C33.2777 72.7223 33.2222 73.7778 33.6667 73.3333C33.7222 73.2778 33.7778 72.2222 33.3333 72.6667z"/>
<path style="fill:#ffffff; stroke:none;" d="M198 82C194.824 80.9164 191.721 79.7943 189.104 77.6111C187.325 76.1262 185.889 73.4594 183.63 72.662C180.735 71.6401 178.298 74.1989 179.327 77.0154C181.688 83.4772 194.024 89.5835 198 82z"/>
<path style="fill:#793d15; stroke:none;" d="M185.333 72.6667C185.278 72.7222 185.222 73.7778 185.667 73.3333C185.722 73.2778 185.778 72.2222 185.333 72.6667M243.333 72.6667C243.278 72.7222 243.222 73.7778 243.667 73.3333C243.722 73.2778 243.778 72.2223 243.333 72.6667z"/>
<path style="fill:#151515; stroke:none;" d="M84 73C82.8137 74.1863 82.4721 74.5838 82 76C83.5481 74.7383 83.808 74.8061 84 73z"/>
<path style="fill:#793d15; stroke:none;" d="M192.667 73.3333C192.222 73.7778 193.278 73.7222 193.333 73.6667C193.778 73.2222 192.722 73.2778 192.667 73.3333M249 73L250 74L249 73M26.3333 74.6667C26.2778 74.7222 26.2223 75.7777 26.6667 75.3333C26.7222 75.2778 26.7778 74.2222 26.3333 74.6667M32.3333 74.6667C32.2777 74.7223 32.2222 75.7777 32.6667 75.3333C32.7222 75.2778 32.7778 74.2222 32.3333 74.6667M194 74L195 75L194 74M244.333 74.6667C244.278 74.7222 244.222 75.7778 244.667 75.3333C244.722 75.2778 244.778 74.2222 244.333 74.6667M186 75L187 76L186 75M195 75L196 76L195 75M250 75L251 76L250 75M31 76L32 77L31 76z"/>
<path style="fill:#151515; stroke:none;" d="M80 76C77.7943 78.2519 75.8066 80.4237 74 83C76.7134 81.0702 79.2034 79.2874 80 76z"/>
<path style="fill:#793d15; stroke:none;" d="M178.333 76.6667C178.278 76.7222 178.222 77.7778 178.667 77.3333C178.722 77.2778 178.778 76.2222 178.333 76.6667M187 76L188 77L187 76M196 76L197 77L196 76M245 76L246 77L245 76M25 77L26 78L25 77M188 77L189 78L188 77M197 77L198 78L197 77M251 77L252 78L251 77M30 78L31 79L30 78M179 78L180 79L179 78M189 78L190 79L189 78M198 78L199 79L198 78M205 78C206.248 78.6848 206.548 78.7488 208 79C206.752 78.3152 206.452 78.2512 205 78M209 81C213.728 79.9476 215.807 81.8894 218 86C219.425 80.5737 212.601 75.9733 209 81M246.333 78.6667C246.278 78.7222 246.222 79.7778 246.667 79.3333C246.722 79.2777 246.778 78.2223 246.333 78.6667M24 79L25 80L24 79M180 79L181 80L180 79M191 79L192 80L191 79M199 79L200 80L199 79M203.667 79.3333C203.222 79.7778 204.278 79.7222 204.333 79.6667C204.778 79.2222 203.722 79.2778 203.667 79.3333z"/>
<path style="fill:#ffffff; stroke:none;" d="M217 86C216.733 84.7088 216.678 83.2892 215.822 82.1883C211.876 77.1116 207.704 83.3926 213.884 85.6821C214.776 86.0126 216.13 85.9338 217 86z"/>
<path style="fill:#793d15; stroke:none;" d="M252 79L253 80L252 79M23.3333 80.6667C23.2778 80.7222 23.2222 81.7778 23.6667 81.3333C23.7222 81.2778 23.7778 80.2222 23.3333 80.6667M29 80L30 81L29 80z"/>
<path style="fill:#151515; stroke:none;" d="M62 98C66.5655 93.8304 69.4342 88.1884 74 84C71.0808 80.4981 64.8197 78.1861 62.6227 84.1088C61.6189 86.8146 63.2478 89.3124 63.321 91.9954C63.3762 94.0209 62.5311 96.0745 62 98z"/>
<path style="fill:#793d15; stroke:none;" d="M181 80L182 81L181 80M193.667 80.3333C193.222 80.7778 194.278 80.7222 194.333 80.6667C194.778 80.2222 193.722 80.2778 193.667 80.3333M200 80C201.248 80.6848 201.548 80.7488 203 81C201.752 80.3152 201.452 80.2512 200 80M247.333 80.6667C247.278 80.7222 247.222 81.7778 247.667 81.3333C247.722 81.2777 247.778 80.2222 247.333 80.6667z"/>
<path style="fill:#151515; stroke:none;" d="M144 81L143 83C144.263 82.0287 144.392 82.3063 144 81z"/>
<path style="fill:#793d15; stroke:none;" d="M182 81L183 82L182 81M196 81C197.139 82.0155 197.612 82.3087 199 83C198.02 81.2167 198.092 81.4057 196 81M253 81L254 82L253 81M28 82L29 83L28 82M183 82L184 83L183 82M209 82L210 83L209 82z"/>
<path style="fill:#ffd301; stroke:none;" d="M216 82L217 83L216 82z"/>
<path style="fill:#793d15; stroke:none;" d="M248.333 82.6667C248.278 82.7222 248.222 83.7778 248.667 83.3333C248.722 83.2778 248.778 82.2223 248.333 82.6667M22 83L23 84L22 83z"/>
<path style="fill:#151515; stroke:none;" d="M141 83C139.814 84.1863 139.416 84.528 138 85C139.926 85.3377 140.709 84.9764 141 83z"/>
<path style="fill:#793d15; stroke:none;" d="M185 83L186 84L185 83M254.333 83.6667C254.278 83.7222 254.222 84.7778 254.667 84.3333C254.722 84.2777 254.778 83.2223 254.333 83.6667M27.3333 84.6667C27.2778 84.7222 27.2222 85.7778 27.6667 85.3333C27.7222 85.2778 27.7778 84.2222 27.3333 84.6667M61 84L61 89C61.8299 86.9695 61.8299 86.0305 61 84M186.667 84.3333C186.222 84.7778 187.278 84.7222 187.333 84.6667C187.778 84.2222 186.722 84.2778 186.667 84.3333M196 84L197 85L196 84M210 84L211 85L210 84M249 84L249 87C249.696 85.4463 249.696 85.5537 249 84M21.3333 85.6667C21.2778 85.7222 21.2222 86.7778 21.6667 86.3333C21.7222 86.2778 21.7778 85.2222 21.3333 85.6667M189.667 85.3333C189.222 85.7778 190.278 85.7222 190.333 85.6667C190.778 85.2222 189.722 85.2778 189.667 85.3333M211 85L212 86L211 85M26.3333 86.6667C26.2778 86.7222 26.2222 87.7778 26.6667 87.3333C26.7222 87.2778 26.7778 86.2222 26.3333 86.6667z"/>
<path style="fill:#151515; stroke:none;" d="M136 86L135 88C136.263 87.0287 136.392 87.3063 136 86z"/>
<path style="fill:#793d15; stroke:none;" d="M149 86C151.332 86.9845 153.457 86.9813 156 87C153.668 86.0155 151.543 86.0187 149 86M193.667 86.3333C193.222 86.7778 194.278 86.7222 194.333 86.6667C194.778 86.2222 193.722 86.2778 193.667 86.3333M213 86C214.248 86.6848 214.548 86.7488 216 87C214.752 86.3152 214.452 86.2512 213 86M219 86L220 87L219 86z"/>
<path style="fill:#ffffff; stroke:none;" d="M221 86L222 87L221 86z"/>
<path style="fill:#793d15; stroke:none;" d="M255 86L256 87L255 86M146.667 87.3333C146.222 87.7778 147.278 87.7222 147.333 87.6667C147.778 87.2222 146.722 87.2777 146.667 87.3333z"/>
<path style="fill:#ffffff; stroke:none;" d="M180 134C193.118 133.401 204.156 124.448 210 113C210.265 115.388 210.143 117.594 210 120C215.25 118.899 219.925 117.173 223.468 112.907C230.114 104.901 229.761 92.6688 219 89C216.349 96.6469 210.417 101.818 207 109C198.775 98.7962 188.68 106.172 184 116C184.621 112.376 186.545 109.381 188 106C182.225 107.046 178.671 110.752 174 114C174 104.794 173.228 94.3507 163.996 89.4421C153.406 83.8115 134.783 88.2887 136.201 103C137.06 111.919 146.532 121.405 156 119.542C161.753 118.41 166.705 113.385 172.996 115.746C180.869 118.701 180.159 127.165 180 134z"/>
<path style="fill:#793d15; stroke:none;" d="M158 87C159.248 87.6848 159.548 87.7488 161 88C159.752 87.3152 159.452 87.2512 158 87M221.667 87.3333C221.222 87.7778 222.278 87.7222 222.333 87.6667C222.778 87.2222 221.722 87.2778 221.667 87.3333M250.333 87.6667C250.278 87.7222 250.222 88.7778 250.667 88.3333C250.722 88.2778 250.778 87.2222 250.333 87.6667M20.3333 88.6667C20.2778 88.7222 20.2222 89.7778 20.6667 89.3333C20.7222 89.2778 20.7778 88.2222 20.3333 88.6667M144 88L145 89L144 88M162.667 88.3333C162.222 88.7778 163.278 88.7222 163.333 88.6667C163.778 88.2223 162.722 88.2777 162.667 88.3333M219 88L220 89L219 88M224 88L225 89L224 88M256.333 88.6667C256.278 88.7223 256.222 89.7777 256.667 89.3333C256.722 89.2779 256.778 88.2222 256.333 88.6667M25.3333 89.6667C25.2778 89.7222 25.2222 90.7778 25.6667 90.3333C25.7222 90.2778 25.7778 89.2222 25.3333 89.6667M62 89L62 91L64 91C63.455 89.3649 63.6351 89.545 62 89M142 89L143 90L142 89M164 89L165 90L164 89M218.333 89.6667C218.278 89.7222 218.222 90.7778 218.667 90.3333C218.722 90.2777 218.778 89.2223 218.333 89.6667M221 89L222 90L221 89M226 89L227 90L226 89M251.333 89.6667C251.278 89.7222 251.222 90.7778 251.667 90.3333C251.722 90.2777 251.778 89.2223 251.333 89.6667M19.3333 90.6667C19.2778 90.7222 19.2222 91.7778 19.6667 91.3333C19.7222 91.2778 19.7778 90.2222 19.3333 90.6667z"/>
<path style="fill:#151515; stroke:none;" d="M131 90L132 91L131 90z"/>
<path style="fill:#793d15; stroke:none;" d="M141 90L142 91L141 90M166 90L167 91L166 90M223 90L224 91L223 90M227 90L228 91L227 90M64.3333 91.6667C64.2778 91.7222 64.2222 92.7778 64.6667 92.3333C64.7222 92.2778 64.7778 91.2222 64.3333 91.6667z"/>
<path style="fill:#151515; stroke:none;" d="M123 91L124 92L123 91z"/>
<path style="fill:#793d15; stroke:none;" d="M140 91L141 92L140 91M167 91L168 92L167 91M224 91L225 92L224 91M228 91L229 92L228 91M257.333 91.6667C257.278 91.7223 257.222 92.7777 257.667 92.3333C257.722 92.2779 257.778 91.2222 257.333 91.6667M24.3333 92.6667C24.2778 92.7222 24.2222 93.7778 24.6667 93.3333C24.7222 93.2778 24.7778 92.2222 24.3333 92.6667z"/>
<path style="fill:#151515; stroke:none;" d="M120 101C123.977 98.7942 127.283 95.63 130 92C125.375 93.5896 121.682 96.3305 120 101z"/>
<path style="fill:#793d15; stroke:none;" d="M139 92L140 93L139 92M150 92C152.397 93.5574 154.147 93.2836 157 93C154.668 92.0155 152.543 92.0187 150 92M168 92L169 93L168 92M225 92L226 93L225 92M229 92L230 93L229 92M252.333 92.6667C252.278 92.7222 252.222 93.7778 252.667 93.3333C252.722 93.2777 252.778 92.2223 252.333 92.6667M63 93L64 94L63 93M138 93L139 94L138 93M147 93L148 94L147 93z"/>
<path style="fill:#151515; stroke:none;" d="M142 107C144.509 101.199 144.771 97.2607 151 94C143.255 91.9726 142.016 101.517 142 107M163 97C162.653 104.506 153.409 99.314 158 94C153.832 92.4368 150.022 95.3157 150.642 100.001C151.183 104.091 154.363 107.713 158.004 109.424C167.613 113.938 170.836 101.462 163 97z"/>
<path style="fill:#793d15; stroke:none;" d="M155 98C155.685 96.7516 155.749 96.4516 156 95C158.806 95.3431 161.305 96.1552 164 97C160.675 93.274 156.688 92.6724 155 98M169 93L170 94L169 93M217 93L218 94L217 93M226 93L227 94L226 93M230.333 93.6667C230.278 93.7222 230.222 94.7778 230.667 94.3333C230.722 94.2777 230.778 93.2223 230.333 93.6667M18.3333 94.6667C18.2778 94.7222 18.2222 95.7778 18.6667 95.3333C18.7222 95.2778 18.7778 94.2222 18.3333 94.6667M23 94L23 97C23.6961 95.4463 23.6961 95.5537 23 94M137.333 94.6667C137.278 94.7222 137.222 95.7778 137.667 95.3333C137.722 95.2777 137.778 94.2223 137.333 94.6667M145 94L146 95L145 94M149 94L150 95L149 94M216.333 94.6667C216.278 94.7222 216.222 95.7778 216.667 95.3333C216.722 95.2778 216.778 94.2223 216.333 94.6667M227.333 94.6667C227.278 94.7222 227.222 95.7778 227.667 95.3333C227.722 95.2778 227.778 94.2223 227.333 94.6667M258.333 94.6667C258.278 94.7223 258.222 95.7777 258.667 95.3333C258.722 95.2778 258.778 94.2222 258.333 94.6667M144 95L145 96L144 95M147 95L148 96L147 95z"/>
<path style="fill:#ffffff; stroke:none;" d="M156 95C156.64 99.0512 158.15 100.648 162 102C163.103 97.0486 160.779 95.3645 156 95z"/>
<path style="fill:#793d15; stroke:none;" d="M170 95L171 96L170 95M231 95L231 98C231.696 96.4463 231.696 96.5537 231 95M253 95L253 98C253.696 96.4463 253.696 96.5537 253 95M136.333 96.6667C136.278 96.7222 136.222 97.7778 136.667 97.3333C136.722 97.2778 136.778 96.2223 136.333 96.6667M143 96L144 97L143 96M146 96L147 97L146 96M150 96L151 97L150 96M17.3333 97.6667C17.2778 97.7222 17.2222 98.7778 17.6667 98.3333C17.7222 98.2778 17.7778 97.2222 17.3333 97.6667M145 97L146 98L145 97M171 97L172 98L171 97M228 97L228 104C229.059 101.466 229.059 99.5343 228 97M259 97L259 100C259.696 98.4463 259.696 98.5537 259 97M22.3333 98.6667C22.2778 98.7222 22.2222 99.7778 22.6667 99.3333C22.7222 99.2778 22.7778 98.2222 22.3333 98.6667z"/>
<path style="fill:#151515; stroke:none;" d="M61 98C60.1055 100.042 59.4637 101.828 59 104C60.7769 101.95 61.6395 100.66 61 98z"/>
<path style="fill:#793d15; stroke:none;" d="M142 98L143 99L142 98M144.333 98.6667C144.278 98.7222 144.222 99.7778 144.667 99.3333C144.722 99.2777 144.778 98.2223 144.333 98.6667M163 98L163 101C163.696 99.4463 163.696 99.5537 163 98M172.333 98.6667C172.278 98.7222 172.222 99.7778 172.667 99.3333C172.722 99.2777 172.778 98.2223 172.333 98.6667M214 98L215 99L214 98M254 98L254 101C254.696 99.4463 254.696 99.5537 254 98M72.0432 100.029C67.9257 102.192 66.5045 106.751 65.7577 111C63.6776 122.837 70.225 144.885 86 136.673C92.5121 133.283 105.2 123.602 104.377 115.09C104.052 111.721 100.397 109.518 97.9992 107.601C92.0173 102.819 80.0542 95.8186 72.0432 100.029M156 99L157 100L156 99M166 99L167 100L166 99M213 99L214 100L213 99M232 99L232 105C232.951 102.715 232.951 101.285 232 99M143.333 100.667C143.278 100.722 143.222 101.778 143.667 101.333C143.722 101.278 143.778 100.222 143.333 100.667M150.333 100.667C150.278 100.722 150.222 101.778 150.667 101.333C150.722 101.278 150.778 100.222 150.333 100.667M157 100L158 101L157 100M212 100L213 101L212 100M16.3333 101.667C16.2778 101.722 16.2222 102.778 16.6667 102.333C16.7222 102.278 16.7778 101.222 16.3333 101.667z"/>
<path style="fill:#151515; stroke:none;" d="M98 111C101.687 119.878 95.2316 126.563 87.9853 131.301C85.4514 132.958 82.1876 135.151 79 134.292C69.7845 131.806 68.0216 119.826 68 112C70.9059 117.757 72.1593 122.936 78.0039 126.597C83.2199 129.865 88.2294 129.695 89 123C88.0759 124.648 87.5506 126.175 87 128C81.9716 126.061 77.2971 124.707 74.1335 119.96C71.8701 116.564 68.7718 108.196 72.6034 104.785C77.2766 100.625 83.9745 108.441 85.9252 112.001C87.6198 115.094 87.9491 118.684 89 122C90.7135 120.287 89.6163 119.465 89 117C88.3389 114.356 88.3298 111.28 87 109C85.2375 105.979 81.3902 103.912 79 102L80 101C76.6201 101.012 73.013 100.729 70.419 103.318C62.6027 111.118 66.2557 134.191 78.0039 136.879C80.7219 137.501 83.6461 135.855 86 134.687C92.9606 131.233 109.571 117.498 98 111M81.6667 101.333C81.2222 101.778 82.2778 101.722 82.3333 101.667C82.7778 101.222 81.7222 101.278 81.6667 101.333z"/>
<path style="fill:#793d15; stroke:none;" d="M135.333 101.667C135.278 101.722 135.222 102.778 135.667 102.333C135.722 102.278 135.778 101.222 135.333 101.667M141 101L141 105C141.71 103.241 141.71 102.759 141 101M158.667 101.333C158.222 101.778 159.278 101.722 159.333 101.667C159.778 101.222 158.722 101.278 158.667 101.333M162 101L163 102L162 101M167 101L168 102L167 101M173.333 101.667C173.278 101.722 173.222 102.778 173.667 102.333C173.722 102.278 173.778 101.222 173.333 101.667M211 101L212 102L211 101M260 101L260 104C260.696 102.446 260.696 102.554 260 101M21 102L21 105C21.6961 103.446 21.6961 103.554 21 102z"/>
<path style="fill:#151515; stroke:none;" d="M119 102L118 105C119.289 103.557 119.401 103.766 119 102z"/>
<path style="fill:#793d15; stroke:none;" d="M210 102L211 103L210 102M255 102L255 105C255.696 103.446 255.696 103.554 255 102M71 107C73.0286 105.514 74.5754 104.641 77 104C73.8281 102.896 72.0909 103.891 71 107M151 103L152 104L151 103M195.667 103.333C195.222 103.778 196.278 103.722 196.333 103.667C196.778 103.222 195.722 103.278 195.667 103.333M201.667 103.333C201.222 103.778 202.278 103.722 202.333 103.667C202.778 103.222 201.722 103.278 201.667 103.333z"/>
<path style="fill:#ffffff; stroke:none;" d="M87 127C88.6636 119.993 87.4821 112.301 81.8951 107.228C79.7903 105.317 76.2366 103.208 73.4375 105.043C70.8034 106.771 71.5002 110.393 71.9275 113C73.3192 121.491 78.6795 125.753 87 127z"/>
<path style="fill:#793d15; stroke:none;" d="M78 104L79 105L78 104M168 104L168 107C168.696 105.446 168.696 105.554 168 104M194 104L195 105L194 104M203 104L204 105L203 104M209 104L210 105L209 104M15 105L15 108C15.6961 106.446 15.6961 106.554 15 105z"/>
<path style="fill:#151515; stroke:none;" d="M58 105L57 110C58.1326 108.101 58.4734 107.143 58 105z"/>
<path style="fill:#793d15; stroke:none;" d="M80 105C80.5451 106.635 80.3648 106.455 82 107L82 105L80 105M136.333 105.667C136.278 105.722 136.222 106.778 136.667 106.333C136.722 106.278 136.778 105.222 136.333 105.667M143 105L142 108C143.766 107.021 143.955 106.778 143 105M152 105L153 106L152 105M186 105C187.364 106.819 187.492 106.031 187 108L190 108C188.703 106.08 188.209 105.684 186 105M192 105L193 106L192 105M204 105L205 106L204 105M227.333 105.667C227.278 105.722 227.222 106.778 227.667 106.333C227.722 106.278 227.778 105.222 227.333 105.667M261 105L261 108C261.696 106.446 261.696 106.554 261 105M20 106L20 109C20.6961 107.446 20.6961 107.554 20 106M153 106L154 107L153 106M174 106L174 114C175.161 111.23 175.161 108.77 174 106M183.667 106.333C183.222 106.778 184.278 106.722 184.333 106.667C184.778 106.222 183.722 106.278 183.667 106.333M191 106L192 107L191 106M205 106L206 107L205 106M231 106L231 109C231.696 107.446 231.696 107.554 231 106M256 106L256 110C256.71 108.24 256.71 107.759 256 106M82 107L83 108L82 107M154 107L155 108L154 107M182 107L183 108L182 107z"/>
<path style="fill:#151515; stroke:none;" d="M188 107L186 111C187.63 109.485 188.163 109.145 188 107z"/>
<path style="fill:#793d15; stroke:none;" d="M207 107L208 108L207 107M83 108L84 109L83 108z"/>
<path style="fill:#151515; stroke:none;" d="M116.333 108.667C116.278 108.722 116.222 109.778 116.667 109.333C116.722 109.278 116.778 108.222 116.333 108.667z"/>
<path style="fill:#793d15; stroke:none;" d="M137 108L138 109L137 108z"/>
<path style="fill:#151515; stroke:none;" d="M143 108L144 109L143 108z"/>
<path style="fill:#793d15; stroke:none;" d="M155 108L156 109L155 108M167 108L168 109L167 108M180 108L181 109L180 108M206 108L207 109L206 108M226 108L227 109L226 108M84 109L85 110L84 109M143 109C143.545 110.635 143.365 110.455 145 111L145 109L143 109M157 109L158 110L157 109M166 109L167 110L166 109M176 109L177 110L176 109M179 109L180 110L179 109M186 109L187 110L186 109M230.333 109.667C230.278 109.722 230.222 110.778 230.667 110.333C230.722 110.278 230.778 109.222 230.333 109.667M14 110L14 114C14.7102 112.241 14.7102 111.759 14 110M71 110L71 115C71.8299 112.97 71.8299 112.031 71 110M85.3333 110.667C85.2778 110.722 85.2222 111.778 85.6667 111.333C85.7223 111.278 85.7778 110.222 85.3333 110.667M138 110L139 111L138 110M159.667 110.333C159.222 110.778 160.278 110.722 160.333 110.667C160.778 110.222 159.722 110.278 159.667 110.333M164.667 110.333C164.222 110.778 165.278 110.722 165.333 110.667C165.778 110.222 164.722 110.278 164.667 110.333M178 110L179 111L178 110M225 110L226 111L225 110M19 111L19 115C19.7102 113.24 19.7102 112.76 19 111z"/>
<path style="fill:#151515; stroke:none;" d="M56 111L56 114C56.6961 112.446 56.6961 112.554 56 111z"/>
<path style="fill:#793d15; stroke:none;" d="M139 111L140 112L139 111M145 111L146 112L145 111M177 111L178 112L177 111M185 111C184.11 112.745 183.547 114.125 183 116C184.752 114.41 185.794 113.046 187 111L185 111M224 111L225 112L224 111M229.333 111.667C229.278 111.722 229.222 112.778 229.667 112.333C229.722 112.278 229.778 111.222 229.333 111.667M257 111L257 117C257.951 114.715 257.951 113.285 257 111M262 111L262 114C262.696 112.446 262.696 112.554 262 111M86.3333 112.667C86.2778 112.722 86.2222 113.778 86.6667 113.333C86.7223 113.278 86.7778 112.222 86.3333 112.667z"/>
<path style="fill:#151515; stroke:none;" d="M114 112L113 115C114.289 113.557 114.401 113.766 114 112z"/>
<path style="fill:#793d15; stroke:none;" d="M146 112L147 113L146 112M176 112L177 113L176 112M147.667 113.333C147.222 113.778 148.278 113.722 148.333 113.667C148.778 113.222 147.722 113.278 147.667 113.333M210 113C208.723 114.915 208.723 114.085 210 116C210.713 114.652 210.805 114.271 210 113M141 114L142 115L141 114M149 114C150.458 115.081 151.248 115.436 153 116C151.457 114.733 150.952 114.511 149 114z"/>
<path style="fill:#151515; stroke:none;" d="M210 114L211 115L210 114z"/>
<path style="fill:#793d15; stroke:none;" d="M222 114L223 115L222 114M228 114L229 115L228 114M87 115L87 118C87.6961 116.446 87.6961 116.554 87 115z"/>
<path style="fill:#151515; stroke:none;" d="M153.667 115.333C153.222 115.778 154.278 115.722 154.333 115.667C154.778 115.222 153.722 115.278 153.667 115.333z"/>
<path style="fill:#793d15; stroke:none;" d="M155 115L156 116L155 115M166 115C167.248 115.685 167.548 115.749 169 116C167.752 115.315 167.452 115.251 166 115M172.667 115.333C172.222 115.778 173.278 115.722 173.333 115.667C173.778 115.222 172.722 115.278 172.667 115.333z"/>
<path style="fill:#151515; stroke:none;" d="M209 115L198 129C204.59 126.445 207.481 121.089 215 121C212.948 120.126 211.253 120.047 209 120C209.436 117.949 209.622 116.943 209 115z"/>
<path style="fill:#793d15; stroke:none;" d="M227 115L228 116L227 115M72.3333 116.667C72.2778 116.722 72.2222 117.778 72.6667 117.333C72.7222 117.278 72.7777 116.222 72.3333 116.667z"/>
<path style="fill:#151515; stroke:none;" d="M112 116L108 124C110.464 121.716 112.502 119.449 112 116z"/>
<path style="fill:#793d15; stroke:none;" d="M144 116L145 117L144 116M162.667 116.333C162.222 116.778 163.278 116.722 163.333 116.667C163.778 116.222 162.722 116.278 162.667 116.333M175 116L176 117L175 116M182 116L183 117L182 116M219 116L220 117L219 116M226 116L227 117L226 116M13 117L13 123C13.9511 120.715 13.9511 119.285 13 117M18 117L18 126C19.2561 123.006 19.2561 119.994 18 117M54 117L54 130C55.5909 126.209 55.5909 120.791 54 117M145 117L146 118L145 117M160.667 117.333C160.222 117.778 161.278 117.722 161.333 117.667C161.778 117.222 160.722 117.278 160.667 117.333M176 117L177 118L176 117M207 117L208 118L207 117M218 117L219 118L218 117M225 117L226 118L225 117M263 117L263 124C264.059 121.466 264.059 119.534 263 117M147 118L148 119L147 118M159 118L160 119L159 118M177 118L178 119L177 118M206 118L207 119L206 118M209.333 118.667C209.278 118.722 209.222 119.778 209.667 119.333C209.722 119.278 209.778 118.222 209.333 118.667M216 118L217 119L216 118M224 118L225 119L224 118M73 119L74 120L73 119M149 119C150.248 119.685 150.549 119.749 152 120C150.752 119.315 150.452 119.251 149 119M157 119L158 120L157 119M178 119L179 120L178 119M205 119L206 120L205 119M212 119C213.248 119.685 213.548 119.749 215 120C213.752 119.315 213.452 119.251 212 119M218 119L219 120L218 119z"/>
<path style="fill:#ffffff; stroke:none;" d="M219 119C211.75 122.8 205.257 122.961 199.433 129.615C196.294 133.201 195.666 141.369 196.204 145.995C196.429 147.939 197.085 150.65 199.275 151.248C202.108 152.023 204.378 149.098 205.583 146.981C208.434 141.97 208.953 135.638 209 130L211 130L210 145C218.324 140.083 222.887 128.263 219 119z"/>
<path style="fill:#793d15; stroke:none;" d="M258 119L258 146C260.541 139.945 260.541 125.055 258 119M154 120L155 121L154 120M163.667 120.333C163.222 120.778 164.278 120.722 164.333 120.667C164.778 120.222 163.722 120.278 163.667 120.333z"/>
<path style="fill:#ffffff; stroke:none;" d="M125 178C123.991 171.631 126.076 165.056 128 159C109.68 167.568 113.626 196.488 129 205.852C134.309 209.085 139.332 207.035 145 206.289C152.973 205.241 161.096 205.467 169 204C169 199.231 168.873 194.7 168 190L150 199C160.935 188.043 179.196 187.641 182 169C178.268 168.911 175.763 168.59 173 166C185.63 168.999 209.632 163.083 211 148C205.645 149.503 202.598 153.956 198 156.867C189.273 162.39 177.461 162.676 171 154C167.67 156.345 164.883 159.124 162 162C166.759 151.733 177.577 144.456 177.863 132C178.057 123.613 170.698 118.883 163 120.928C154.647 123.147 148.456 129.616 143.091 136.039C137.071 143.247 132.611 152.072 129.746 161C127.942 166.624 127.312 172.557 125 178z"/>
<path style="fill:#793d15; stroke:none;" d="M170 120L171 121L170 120M215.667 120.333C215.222 120.778 216.278 120.722 216.333 120.667C216.778 120.222 215.722 120.278 215.667 120.333M220 120L220 129C221.256 126.006 221.256 122.994 220 120M223 120L224 121L223 120M75.3333 121.667C75.2778 121.722 75.2222 122.778 75.6667 122.333C75.7223 122.278 75.7778 121.222 75.3333 121.667M160 121L161 122L160 121M172 121L173 122L172 121M179.333 121.667C179.278 121.722 179.222 122.778 179.667 122.333C179.722 122.278 179.778 121.222 179.333 121.667M207 121C209.332 121.985 211.457 121.981 214 122C211.668 121.015 209.543 121.019 207 121M224 121L224 131C225.346 127.793 225.346 124.207 224 121M158 122L159 123L158 122M174 122L175 123L174 122M203 122L204 123L203 122M76 123L77 124L76 123M156 123L157 124L156 123M175 123L176 124L175 123M202 123L203 124L202 123M78 124L79 125L78 124M201 124L202 125L201 124M205 124L206 125L205 124M79.6667 125.333C79.2222 125.778 80.2778 125.722 80.3333 125.667C80.7778 125.222 79.7222 125.278 79.6667 125.333M87.3333 125.667C87.2778 125.722 87.2222 126.778 87.6667 126.333C87.7223 126.278 87.7778 125.222 87.3333 125.667z"/>
<path style="fill:#151515; stroke:none;" d="M107 125L108 126L107 125z"/>
<path style="fill:#793d15; stroke:none;" d="M153 125L154 126L153 125M176 125L177 126L176 125M200 125L201 126L200 125M204 125L205 126L204 125M82.6667 126.333C82.2222 126.778 83.2778 126.722 83.3333 126.667C83.7778 126.222 82.7222 126.278 82.6667 126.333M152 126L153 127L152 126M177.333 126.667C177.278 126.722 177.222 127.778 177.667 127.333C177.722 127.278 177.778 126.222 177.333 126.667M199 126L200 127L199 126M86 127L87 128L86 127M151 127L152 128L151 127M198 127L199 128L198 127M201 127L202 128L201 127M180 128L181 129L180 128M196.667 128.333C196.222 128.778 197.278 128.722 197.333 128.667C197.778 128.222 196.722 128.278 196.667 128.333M200 128L201 129L200 128M195 129L196 130L195 129M198.667 129.333C198.222 129.778 199.278 129.722 199.333 129.667C199.778 129.222 198.722 129.278 198.667 129.333M55 130L55 134C55.7102 132.241 55.7102 131.759 55 130M147 130L146 132L148 132C148 130.147 148.3 130.65 147 130M193 130L194 131L193 130M197.333 130.667C197.278 130.722 197.222 131.778 197.667 131.333C197.722 131.278 197.778 130.222 197.333 130.667M210 130L211 131L210 130M191 131L192 132L191 131M188.667 132.333C188.222 132.778 189.278 132.722 189.333 132.667C189.778 132.222 188.722 132.278 188.667 132.333M219.333 132.667C219.278 132.722 219.222 133.778 219.667 133.333C219.722 133.278 219.778 132.222 219.333 132.667M145 133L146 134L145 133M179 133C180.54 134.803 181.597 134.832 184 135C182.352 134.076 180.825 133.551 179 133M185.667 133.333C185.222 133.778 186.278 133.722 186.333 133.667C186.778 133.222 185.722 133.278 185.667 133.333M223 133L223 136C223.696 134.446 223.696 134.554 223 133M56 134L56 137C56.6961 135.446 56.6961 135.554 56 134z"/>
<path style="fill:#151515; stroke:none;" d="M100 134L101 135L100 134z"/>
<path style="fill:#793d15; stroke:none;" d="M144 134L145 135L144 134M143 135L144 136L143 135M177 135L178 136L177 135M218.333 135.667C218.278 135.722 218.222 136.778 218.667 136.333C218.722 136.278 218.778 135.222 218.333 135.667z"/>
<path style="fill:#151515; stroke:none;" d="M99 136L100 137L99 136z"/>
<path style="fill:#793d15; stroke:none;" d="M142 136L143 137L142 136M18 137L18 147C19.3457 143.793 19.3457 140.207 18 137M57.3333 137.667C57.2778 137.722 57.2222 138.778 57.6667 138.333C57.7222 138.278 57.7778 137.222 57.3333 137.667M196 137L196 141C196.71 139.241 196.71 138.759 196 137M208 137L208 141C208.71 139.241 208.71 138.759 208 137M210 137L210 140C210.696 138.446 210.696 138.554 210 137M222.333 137.667C222.278 137.722 222.222 138.778 222.667 138.333C222.722 138.278 222.778 137.222 222.333 137.667M176.333 138.667C176.278 138.722 176.222 139.778 176.667 139.333C176.722 139.278 176.778 138.222 176.333 138.667z"/>
<path style="fill:#151515; stroke:none;" d="M96 139C91.374 143.626 86.0908 147.927 82 153C86.9743 150.584 95.2596 144.856 96 139z"/>
<path style="fill:#793d15; stroke:none;" d="M140 139L141 140L140 139M173 145C174.596 147.553 174.854 150.612 177 153C181.453 157.956 193.388 160.397 199 157C197.461 154.821 196.645 154.427 194 154C194.365 152.027 194.856 150.015 194.816 147.995C194.54 133.884 180.44 142.673 173 145M216 139L217 140L216 139M221.333 139.667C221.278 139.722 221.222 140.778 221.667 140.333C221.722 140.278 221.778 139.222 221.333 139.667M58 140L59 141L58 140M139 140L140 141L139 140M263 140L263 147C264.059 144.466 264.059 142.534 263 140M13 141L13 147C13.9511 144.715 13.9511 143.285 13 141M175.333 141.667C175.278 141.722 175.222 142.778 175.667 142.333C175.722 142.278 175.778 141.222 175.333 141.667z"/>
<path style="fill:#c91f1f; stroke:none;" d="M193 156C192.372 151.862 194.441 145.964 191.097 142.619C188.506 140.027 177.764 144.064 176.737 147.31C174.18 155.387 188.482 156.475 193 156z"/>
<path style="fill:#793d15; stroke:none;" d="M215 141L216 142L215 141M59.3333 142.667C59.2778 142.722 59.2222 143.778 59.6667 143.333C59.7223 143.278 59.7777 142.222 59.3333 142.667M138 142L139 143L138 142M207.333 142.667C207.278 142.722 207.222 143.778 207.667 143.333C207.722 143.278 207.778 142.222 207.333 142.667M220 142L221 143L220 142M137 143L138 144L137 143M174 143L175 144L174 143M209.333 143.667C209.278 143.722 209.222 144.778 209.667 144.333C209.722 144.278 209.778 143.222 209.333 143.667M212 143L213 144L212 143M219 143L220 144L219 143M60 144L61 145L60 144M211 144L212 145L211 144M218 144L217 146L219 146C219 144.147 219.3 144.65 218 144M61.3333 145.667C61.2778 145.722 61.2222 146.778 61.6667 146.333C61.7222 146.278 61.7778 145.222 61.3333 145.667M136 145L137 146L136 145M206.333 145.667C206.278 145.722 206.222 146.778 206.667 146.333C206.722 146.278 206.778 145.222 206.333 145.667z"/>
<path style="fill:#151515; stroke:none;" d="M173 146C169.885 151.415 165.512 155.864 162 161C165.33 158.655 168.117 155.876 171 153C174.764 162.073 185.893 160.505 194 159C186.905 155.939 175.325 156.776 175 146L173 146z"/>
<path style="fill:#793d15; stroke:none;" d="M216 146C215.19 148.729 215.021 151.15 215 154C216.114 151.416 216.433 148.784 216 146M19 147L19 153C19.9511 150.715 19.9511 149.285 19 147M62.3333 147.667C62.2778 147.722 62.2222 148.778 62.6667 148.333C62.7223 148.278 62.7778 147.222 62.3333 147.667M135 147L136 148L135 147M172 147L173 148L172 147M205 147L206 148L205 147M209.667 147.333C209.222 147.778 210.278 147.722 210.333 147.667C210.778 147.222 209.722 147.278 209.667 147.333z"/>
<path style="fill:#ffffff; stroke:none;" d="M216 147L217 148L216 147z"/>
<path style="fill:#793d15; stroke:none;" d="M257 147L257 152C257.83 149.97 257.83 149.03 257 147M171 148L172 149L171 148z"/>
<path style="fill:#c91f1f; stroke:none;" d="M196 148L197 149L196 148z"/>
<path style="fill:#793d15; stroke:none;" d="M207 148L208 149L207 148M63 149L64 150L63 149M134 149L135 150L134 149M196.333 149.667C196.278 149.722 196.222 150.778 196.667 150.333C196.722 150.278 196.778 149.222 196.333 149.667M204 149L205 150L204 149M206 149L207 150L206 149M211 149L212 150L211 149M64 150L65 151L64 150M133.333 150.667C133.278 150.722 133.222 151.778 133.667 151.333C133.722 151.278 133.778 150.222 133.333 150.667M170 150L171 151L170 150M203 150L204 151L203 150M262 150L262 153C262.696 151.446 262.696 151.554 262 150M14 151L14 154C14.6961 152.446 14.6961 152.554 14 151M169 151L170 152L169 151M197 151L198 152L197 151M202 151L203 152L202 151M65 152L66 153L65 152M168 152L169 153L168 152M198 152C199.248 152.685 199.548 152.749 201 153C199.752 152.315 199.452 152.251 198 152M210.333 152.667C210.278 152.722 210.222 153.778 210.667 153.333C210.722 153.278 210.778 152.222 210.333 152.667M66 153L67 154L66 153M132 153L133 154L132 153M170 153L171 154L170 153M202 153L203 154L202 153M20 154L20 158C20.7102 156.241 20.7102 155.759 20 154M67 154L68 155L67 154M169 154L170 155L169 154M171.333 154.667C171.278 154.722 171.222 155.778 171.667 155.333C171.722 155.278 171.778 154.222 171.333 154.667M201 154L202 155L201 154M256 154L256 157C256.696 155.446 256.696 155.554 256 154z"/>
<path style="fill:#151515; stroke:none;" d="M78 155L79 156L78 155z"/>
<path style="fill:#793d15; stroke:none;" d="M131.333 155.667C131.278 155.722 131.222 156.778 131.667 156.333C131.722 156.278 131.778 155.222 131.333 155.667M166 155L167 156L166 155M168 155L169 156L168 155M199.667 155.333C199.222 155.778 200.278 155.722 200.333 155.667C200.778 155.222 199.722 155.278 199.667 155.333M209 155L210 156L209 155M214.333 155.667C214.278 155.722 214.222 156.778 214.667 156.333C214.722 156.278 214.778 155.222 214.333 155.667M68 156L69 157L68 156M165 156L166 157L165 156M167 156L168 157L167 156z"/>
<path style="fill:#151515; stroke:none;" d="M194 157C195.659 157.406 196.242 157.309 198 157C196.341 156.594 195.758 156.691 194 157z"/>
<path style="fill:#793d15; stroke:none;" d="M208 156L209 157L208 156M261.333 156.667C261.278 156.722 261.222 157.778 261.667 157.333C261.722 157.278 261.778 156.222 261.333 156.667M15.3333 157.667C15.2778 157.722 15.2222 158.778 15.6667 158.333C15.7222 158.278 15.7778 157.222 15.3333 157.667M69 157L70 158L69 157M164 157L165 158L164 157M166 157L167 158L166 157M207 157L208 158L207 157M213 157L214 158L213 157M70 158L71 159L70 158M127.667 158.333C127.222 158.778 128.278 158.722 128.333 158.667C128.778 158.222 127.722 158.278 127.667 158.333M130 158L131 159L130 158M163 158L164 159L163 158M165 158L166 159L165 158M174 158L175 159L174 158M206 158L207 159L206 158M21 159L21 162C21.6961 160.446 21.6961 160.554 21 159M71 159L72 160L71 159M125 159L126 160L125 159M162 159L163 160L162 159M164 159L165 160L164 159M176.667 159.333C176.222 159.778 177.278 159.722 177.333 159.667C177.778 159.222 176.722 159.278 176.667 159.333M191.667 159.333C191.222 159.778 192.278 159.722 192.333 159.667C192.778 159.222 191.722 159.278 191.667 159.333M204 159L205 160L204 159M211 159L211 161C212.635 160.455 212.455 160.635 213 159L211 159M255 159L255 162C255.696 160.446 255.696 160.554 255 159M124 160L125 161L124 160M127 160L127 163C127.696 161.446 127.696 161.554 127 160M163 160L164 161L163 160M179 160C181.89 161.213 184.874 160.998 188 161C185.11 159.787 182.126 160.002 179 160M202 160L203 161L202 160M260.333 160.667C260.278 160.722 260.222 161.778 260.667 161.333C260.722 161.278 260.778 160.222 260.333 160.667M16.3333 161.667C16.2778 161.722 16.2222 162.778 16.6667 162.333C16.7222 162.278 16.7778 161.222 16.3333 161.667M72 161L73 162L72 161M123 161L124 162L123 161M129 161L130 162L129 161M162 161L163 162L162 161M200 161L201 162L200 161M209 161L210 162L209 161M73.3333 162.667C73.2778 162.722 73.2222 163.778 73.6667 163.333C73.7222 163.278 73.7778 162.222 73.3333 162.667M122 162L123 163L122 162M198 162L199 163L198 162M207.667 162.333C207.222 162.778 208.278 162.722 208.333 162.667C208.778 162.222 207.722 162.278 207.667 162.333M22 163L22 166C22.6961 164.446 22.6961 164.554 22 163M121 163L122 164L121 163M126 163L126 166C126.696 164.446 126.696 164.554 126 163M195 163L196 164L195 163M206 163L207 164L206 163M254.333 163.667C254.278 163.722 254.222 164.778 254.667 164.333C254.722 164.278 254.778 163.222 254.333 163.667M74.3333 164.667C74.2778 164.722 74.2222 165.778 74.6667 165.333C74.7222 165.278 74.7778 164.222 74.3333 164.667M128.333 164.667C128.278 164.722 128.222 165.778 128.667 165.333C128.722 165.278 128.778 164.222 128.333 164.667M192.667 164.333C192.222 164.778 193.278 164.722 193.333 164.667C193.778 164.222 192.722 164.278 192.667 164.333M204 164L205 165L204 164M259.333 164.667C259.278 164.722 259.222 165.778 259.667 165.333C259.722 165.278 259.778 164.222 259.333 164.667M17.3333 165.667C17.2778 165.722 17.2222 166.778 17.6667 166.333C17.7222 166.278 17.7778 165.222 17.3333 165.667M188 165C189.248 165.685 189.548 165.749 191 166C189.752 165.315 189.452 165.251 188 165M200 165C201.248 165.685 201.548 165.749 203 166C201.752 165.315 201.452 165.251 200 165M75 166L75 170C75.7102 168.241 75.7102 167.759 75 166M119 166L120 167L119 166M173 166L173 168C174.635 167.455 174.455 167.635 175 166L173 166M182 166C183.506 166.683 184.315 166.826 186 167C184.494 166.317 183.685 166.174 182 166M198.667 166.333C198.222 166.778 199.278 166.722 199.333 166.667C199.778 166.222 198.722 166.278 198.667 166.333M253 166L253 169C253.696 167.446 253.696 167.554 253 166M23.3333 167.667C23.2778 167.722 23.2222 168.778 23.6667 168.333C23.7222 168.278 23.7778 167.222 23.3333 167.667M127 167L127 170C127.696 168.446 127.696 168.554 127 167M196.667 167.333C196.222 167.778 197.278 167.722 197.333 167.667C197.778 167.222 196.722 167.278 196.667 167.333M18.3333 168.667C18.2778 168.722 18.2222 169.778 18.6667 169.333C18.7222 169.278 18.7778 168.222 18.3333 168.667M118 168L119 169L118 168M125.333 168.667C125.278 168.722 125.222 169.778 125.667 169.333C125.722 169.278 125.778 168.222 125.333 168.667M175 168C177.332 168.985 179.457 168.981 182 169C179.668 168.015 177.543 168.019 175 168M193 168C194.248 168.685 194.548 168.749 196 169C194.752 168.315 194.452 168.251 193 168M258.333 168.667C258.278 168.722 258.222 169.778 258.667 169.333C258.722 169.278 258.778 168.222 258.333 168.667M117.333 169.667C117.278 169.722 117.222 170.778 117.667 170.333C117.722 170.278 117.778 169.222 117.333 169.667M182.333 169.667C182.278 169.722 182.222 170.778 182.667 170.333C182.722 170.278 182.778 169.222 182.333 169.667M191.667 169.333C191.222 169.778 192.278 169.722 192.333 169.667C192.778 169.222 191.722 169.278 191.667 169.333M252 169L252 172C252.696 170.446 252.696 170.554 252 169M24.3333 170.667C24.2778 170.722 24.2222 171.778 24.6667 171.333C24.7222 171.278 24.7778 170.222 24.3333 170.667M188.667 170.333C188.222 170.778 189.278 170.722 189.333 170.667C189.778 170.222 188.722 170.278 188.667 170.333M19.3333 171.667C19.2778 171.722 19.2222 172.778 19.6667 172.333C19.7222 172.278 19.7778 171.222 19.3333 171.667M76 171L76 175C76.7102 173.241 76.7102 172.759 76 171M186.333 171.667C186.278 171.722 186.222 172.778 186.667 172.333C186.722 172.278 186.778 171.222 186.333 171.667M257.333 171.667C257.278 171.722 257.222 172.778 257.667 172.333C257.722 172.278 257.778 171.222 257.333 171.667M25 172L25 175C25.6961 173.446 25.6961 173.554 25 172M116.333 172.667C116.278 172.722 116.222 173.778 116.667 173.333C116.722 173.278 116.778 172.222 116.333 172.667M126 172L126 175C126.696 173.446 126.696 173.554 126 172M181.333 172.667C181.278 172.722 181.222 173.778 181.667 173.333C181.722 173.278 181.778 172.222 181.333 172.667M251.333 172.667C251.278 172.722 251.222 173.778 251.667 173.333C251.722 173.278 251.778 172.222 251.333 172.667M124 173L124 177C124.71 175.241 124.71 174.759 124 173M20.3333 174.667C20.2778 174.722 20.2222 175.778 20.6667 175.333C20.7222 175.278 20.7778 174.222 20.3333 174.667M185.333 174.667C185.278 174.722 185.222 175.778 185.667 175.333C185.722 175.278 185.778 174.222 185.333 174.667M256 174L257 175L256 174M26.3333 175.667C26.2778 175.722 26.2222 176.778 26.6667 176.333C26.7222 176.278 26.7778 175.222 26.3333 175.667M180 175L181 176L180 175M250.333 175.667C250.278 175.722 250.222 176.778 250.667 176.333C250.722 176.278 250.778 175.222 250.333 175.667M115 176L115 186C116.346 182.793 116.346 179.207 115 176M184.333 176.667C184.278 176.722 184.222 177.778 184.667 177.333C184.722 177.278 184.778 176.222 184.333 176.667M21 177L22 178L21 177M77 177L77 184C78.0595 181.466 78.0595 179.534 77 177M125 177L126 178L125 177M179 177L180 178L179 177M255 177L256 178L255 177M27.3333 178.667C27.2778 178.722 27.2222 179.778 27.6667 179.333C27.7222 179.278 27.7778 178.222 27.3333 178.667M178 178L179 179L178 178M183.333 178.667C183.278 178.722 183.222 179.778 183.667 179.333C183.722 179.278 183.778 178.222 183.333 178.667M249 178L250 179L249 178M22.3333 179.667C22.2778 179.722 22.2222 180.778 22.6667 180.333C22.7222 180.278 22.7778 179.222 22.3333 179.667M254 179L255 180L254 179M28.3333 180.667C28.2778 180.722 28.2222 181.778 28.6667 181.333C28.7222 181.278 28.7778 180.222 28.3333 180.667M177 180L178 181L177 180M248.333 180.667C248.278 180.722 248.222 181.778 248.667 181.333C248.722 181.278 248.778 180.222 248.333 180.667M176 181L177 182L176 181M179 181C175.992 183.036 172.535 186.567 169 187C170.823 192.75 171 198.01 171 204C177.832 203.943 188.089 203.073 193 198C186.219 192.886 183.512 187.787 179 181M182 181L182 184C182.696 182.446 182.696 182.554 182 181M253.333 181.667C253.278 181.722 253.222 182.778 253.667 182.333C253.722 182.278 253.778 181.222 253.333 181.667M23 182L24 183L23 182M29.3333 182.667C29.2778 182.722 29.2222 183.778 29.6667 183.333C29.7222 183.278 29.7778 182.222 29.3333 182.667M175 182L176 183L175 182M247.333 182.667C247.278 182.722 247.222 183.778 247.667 183.333C247.722 183.278 247.778 182.222 247.333 182.667z"/>
<path style="fill:#151515; stroke:none;" d="M107 183L108 184L107 183z"/>
<path style="fill:#793d15; stroke:none;" d="M24 184L25 185L24 184M30.3333 184.667C30.2778 184.722 30.2222 185.778 30.6667 185.333C30.7222 185.278 30.7778 184.222 30.3333 184.667z"/>
<path style="fill:#151515; stroke:none;" d="M174 184L173 186L175 186C175 184.147 175.3 184.65 174 184z"/>
<path style="fill:#793d15; stroke:none;" d="M246.333 184.667C246.278 184.722 246.222 185.778 246.667 185.333C246.722 185.278 246.778 184.222 246.333 184.667M252 184L253 185L252 184z"/>
<path style="fill:#151515; stroke:none;" d="M106 185L107 186L106 185z"/>
<path style="fill:#793d15; stroke:none;" d="M183 185L183 188C183.696 186.446 183.696 186.554 183 185M25 186L26 187L25 186M78 186L78 190C78.7102 188.241 78.7102 187.759 78 186z"/>
<path style="fill:#151515; stroke:none;" d="M170 188C171.58 187.316 171.777 187.195 173 186C171.42 186.684 171.223 186.805 170 188z"/>
<path style="fill:#793d15; stroke:none;" d="M245.333 186.667C245.278 186.722 245.222 187.778 245.667 187.333C245.722 187.278 245.778 186.222 245.333 186.667M251 186L252 187L251 186M31 187L32 188L31 187M116 187L116 190C116.696 188.446 116.696 188.554 116 187M26 188L27 189L26 188M32.3333 188.667C32.2778 188.722 32.2222 189.778 32.6667 189.333C32.7222 189.278 32.7778 188.222 32.3333 188.667M168 188L169 189L168 188M184 188C184.684 189.58 184.805 189.777 186 191C185.316 189.42 185.195 189.223 184 188M244.333 188.667C244.278 188.722 244.222 189.778 244.667 189.333C244.722 189.278 244.778 188.222 244.333 188.667M250 188L251 189L250 188M166 189C163.444 191.226 160.768 191.884 159 195C160.819 193.636 160.031 193.508 162 194L162 192C164.479 191.912 166.089 191.707 166 189M27 190L28 191L27 190M33.3333 190.667C33.2778 190.722 33.2222 191.778 33.6667 191.333C33.7222 191.278 33.7778 190.222 33.3333 190.667z"/>
<path style="fill:#151515; stroke:none;" d="M165 190L166 191L165 190z"/>
<path style="fill:#793d15; stroke:none;" d="M168 190L168 193C168.696 191.446 168.696 191.554 168 190M243 190L244 191L243 190M249 190L250 191L249 190M79.3333 191.667C79.2778 191.722 79.2222 192.778 79.6667 192.333C79.7222 192.278 79.7778 191.222 79.3333 191.667z"/>
<path style="fill:#151515; stroke:none;" d="M109 191C108.385 193.825 108.656 196.127 109 199C110.09 196.362 110.2 193.636 109 191z"/>
<path style="fill:#793d15; stroke:none;" d="M117.333 191.667C117.278 191.722 117.222 192.778 117.667 192.333C117.722 192.278 117.778 191.222 117.333 191.667M186 191L187 192L186 191M28 192L29 193L28 192M34 192L35 193L34 192z"/>
<path style="fill:#151515; stroke:none;" d="M162 192L163 193L162 192z"/>
<path style="fill:#793d15; stroke:none;" d="M187 192L188 193L187 192M242 192L243 193L242 192M248 192L249 193L248 192z"/>
<path style="fill:#151515; stroke:none;" d="M160 193L161 194L160 193z"/>
<path style="fill:#793d15; stroke:none;" d="M188.667 193.333C188.222 193.778 189.278 193.722 189.333 193.667C189.778 193.222 188.722 193.278 188.667 193.333M241.333 193.667C241.278 193.722 241.222 194.778 241.667 194.333C241.722 194.278 241.778 193.222 241.333 193.667M29 194L30 195L29 194M35 194L36 195L35 194M80.3333 194.667C80.2778 194.722 80.2222 195.778 80.6667 195.333C80.7222 195.278 80.7778 194.222 80.3333 194.667M118 194L119 195L118 194M157.333 194.667C157.278 194.722 157.222 195.778 157.667 195.333C157.722 195.278 157.778 194.222 157.333 194.667z"/>
<path style="fill:#151515; stroke:none;" d="M158 194L159 195L158 194z"/>
<path style="fill:#793d15; stroke:none;" d="M190 194L191 195L190 194M204.667 194.333C204.222 194.778 205.278 194.722 205.333 194.667C205.778 194.222 204.722 194.278 204.667 194.333M247 194L248 195L247 194M30.3333 195.667C30.2778 195.722 30.2222 196.778 30.6667 196.333C30.7222 196.278 30.7778 195.222 30.3333 195.667M36 195L37 196L36 195M150 199C152.548 197.966 154.386 197.214 156 195C153.193 195.849 151.612 196.548 150 199z"/>
<path style="fill:#151515; stroke:none;" d="M156 195L157 196L156 195z"/>
<path style="fill:#793d15; stroke:none;" d="M192.667 195.333C192.222 195.778 193.278 195.722 193.333 195.667C193.778 195.222 192.722 195.278 192.667 195.333M201.667 195.333C201.222 195.778 202.278 195.722 202.333 195.667C202.778 195.222 201.722 195.278 201.667 195.333M207.333 195.667C207.278 195.722 207.222 196.778 207.667 196.333C207.722 196.278 207.778 195.222 207.333 195.667M240 195L241 196L240 195M246 195L247 196L246 195M81 196L82 197L81 196M119 196L120 197L119 196M169 196L169 201C169.83 198.969 169.83 198.03 169 196M194 196C196.052 196.874 197.747 196.953 200 197C197.948 196.126 196.253 196.047 194 196M31 197L32 198L31 197M37 197L37 199L39 199C38.4549 197.365 38.6352 197.545 37 197M82.3333 197.667C82.2778 197.722 82.2222 198.778 82.6667 198.333C82.7222 198.278 82.7778 197.222 82.3333 197.667M120 197L121 198L120 197M208.333 197.667C208.278 197.722 208.222 198.778 208.667 198.333C208.722 198.278 208.778 197.222 208.333 197.667M239 197L240 198L239 197M245 197L246 198L245 197M238.333 198.667C238.278 198.722 238.222 199.778 238.667 199.333C238.722 199.278 238.778 198.222 238.333 198.667M32 199L33 200L32 199M83.3333 199.667C83.2778 199.722 83.2222 200.778 83.6667 200.333C83.7222 200.278 83.7778 199.222 83.3333 199.667M121 199L122 200L121 199M207 199L208 200L207 199M33 200L34 201L33 200M39 200L40 201L39 200M122 200L123 201L122 200M206 200L207 201L206 200M237 200L238 201L237 200M243 200L244 201L243 200M40 201L41 202L40 201M84 201L84 204C84.6961 202.446 84.6961 202.554 84 201M123 201L124 202L123 201M204 201L205 202L204 201M236 201L237 202L236 201M34 202L35 203L34 202M124 202L125 203L124 202M201.667 202.333C201.222 202.778 202.278 202.722 202.333 202.667C202.778 202.222 201.722 202.278 201.667 202.333M242 202L243 203L242 202M35 203L36 204L35 203M41 203L42 204L41 203M125 203L126 204L125 203M199.667 203.333C199.222 203.778 200.278 203.722 200.333 203.667C200.778 203.222 199.722 203.278 199.667 203.333M235 203L236 204L235 203M241 203L242 204L241 203M42 204L43 205L42 204M85.3333 204.667C85.2778 204.722 85.2222 205.778 85.6667 205.333C85.7222 205.278 85.7778 204.222 85.3333 204.667M126 204L127 205L126 204M166 204C167.248 204.685 167.548 204.749 169 205C167.752 204.315 167.452 204.251 166 204M196.667 204.333C196.222 204.778 197.278 204.722 197.333 204.667C197.778 204.222 196.722 204.278 196.667 204.333M234 204L235 205L234 204M240 204L241 205L240 204M36 205L37 206L36 205M43 205L44 206L43 205M87 205C86.3843 209.107 85.1132 212.62 82.625 216C80.8751 218.377 77.2015 221.495 78.3719 224.852C79.6314 228.464 85.8502 228.818 89 228.621C97.1293 228.113 112.764 222.118 117 215C105.647 214.906 96.4989 210.836 87 205M127.667 205.333C127.222 205.778 128.278 205.722 128.333 205.667C128.778 205.222 127.722 205.278 127.667 205.333M153 205C155.332 205.985 157.457 205.981 160 206C157.668 205.015 155.543 205.019 153 205M192 205C193.248 205.685 193.548 205.749 195 206C193.752 205.315 193.452 205.251 192 205M233 205L234 206L233 205M37 206L38 207L37 206M129 206L130 207L129 206M143 206C144.769 206.779 146.036 206.912 148 207C146.231 206.221 144.964 206.088 143 206M189 206C190.248 206.685 190.548 206.749 192 207C190.752 206.315 190.452 206.251 189 206M232 206L233 207L232 206M239 206L240 207L239 206M38 207L39 208L38 207M44 207L45 208L44 207M131 207L132 208L131 207M138 207C139.248 207.685 139.548 207.749 141 208C139.752 207.315 139.452 207.251 138 207M185 207C186.248 207.685 186.548 207.749 188 208C186.752 207.315 186.452 207.251 185 207M238 207L239 208L238 207M45 208L46 209L45 208M84 208L84 212C84.7102 210.241 84.7102 209.759 84 208M179 208C180.769 208.779 182.036 208.912 184 209C182.231 208.221 180.964 208.088 179 208M231 208L232 209L231 208M237 208L238 209L237 208M46 209L47 210L46 209M162 209C166.724 210.982 172.91 210 178 210C173.276 208.018 167.09 209 162 209M230 209L231 210L230 209M40 210L41 211L40 210M47 210L48 211L47 210M153 210C155.052 210.874 156.747 210.953 159 211C156.948 210.126 155.253 210.047 153 210M160 210L161 211L160 210M229 210L230 211L229 210M236 210L237 211L236 210M41 211L42 212L41 211M48 211L49 212L48 211M146 211C148.052 211.874 149.747 211.953 152 212C149.948 211.126 148.253 211.047 146 211M228 211L229 212L228 211M235 211L236 212L235 211M42 212L43 213L42 212M49 212L50 213L49 212M83.3333 212.667C83.2778 212.722 83.2222 213.778 83.6667 213.333C83.7222 213.278 83.7778 212.222 83.3333 212.667M142 212C143.506 212.683 144.315 212.826 146 213C144.494 212.317 143.685 212.174 142 212M227 212L228 213L227 212M234 212L235 213L234 212M43 213L44 214L43 213M50 213L51 214L50 213M137 213C138.248 213.685 138.548 213.749 140 214C138.752 213.315 138.452 213.251 137 213M226 213C224.652 214.768 223.878 215.982 223 218C225.015 216.356 226.098 215.587 226 213M233 213L234 214L233 213M82 214L83 215L82 214M134.667 214.333C134.222 214.778 135.278 214.722 135.333 214.667C135.778 214.222 134.722 214.278 134.667 214.333M81 215L82 216L81 215M131.667 215.333C131.222 215.778 132.278 215.722 132.333 215.667C132.778 215.222 131.722 215.278 131.667 215.333M45 216L46 217L45 216M52.6667 216.333C52.2222 216.778 53.2778 216.722 53.3333 216.667C53.7778 216.222 52.7222 216.278 52.6667 216.333M80 216C78.6515 217.768 77.8781 218.982 77 221C79.0153 219.356 80.0979 218.587 80 216M127 216C128.248 216.685 128.548 216.749 130 217C128.752 216.315 128.452 216.251 127 216M46 217L47 218L46 217M54 217C54.6836 218.58 54.8048 218.777 56 220C55.3164 218.42 55.1952 218.223 54 217M125.667 217.333C125.222 217.778 126.278 217.722 126.333 217.667C126.778 217.222 125.722 217.278 125.667 217.333M47 218L48 219L47 218M122.667 218.333C122.222 218.778 123.278 218.722 123.333 218.667C123.778 218.222 122.722 218.278 122.667 218.333M221 218L220 220L222 220C222 218.147 222.3 218.65 221 218M229 218L230 219L229 218M48 219L49 220L48 219M120.667 219.333C120.222 219.778 121.278 219.722 121.333 219.667C121.778 219.222 120.722 219.278 120.667 219.333M228 219L229 220L228 219M49 220L50 221L49 220M57 220L58 221L57 220M118.667 220.333C118.222 220.778 119.278 220.722 119.333 220.667C119.778 220.222 118.722 220.278 118.667 220.333M219 220L220 221L219 220M227 220L228 221L227 220M50 221L51 222L50 221M58 221L59 222L58 221M76 221L77 222L76 221M117 221L118 222L117 221M218 221L219 222L218 221M226 221L227 222L226 221M51 222L52 223L51 222M59 222L60 223L59 222M75.3333 222.667C75.2778 222.722 75.2222 223.778 75.6667 223.333C75.7222 223.278 75.7778 222.222 75.3333 222.667M115 222L116 223L115 222M217 222L218 223L217 222M225 222L226 223L225 222M52 223L53 224L52 223M60 223L61 224L60 223M113 223L114 224L113 223M216 223L217 224L216 223M224 223L225 224L224 223M53 224L54 225L53 224M61 224L62 225L61 224M74 224L74 228C74.7102 226.241 74.7102 225.759 74 224M111.667 224.333C111.222 224.778 112.278 224.722 112.333 224.667C112.778 224.222 111.722 224.278 111.667 224.333M215 224L216 225L215 224M223 224L224 225L223 224M54 225L55 226L54 225M62 225L63 226L62 225M110 225L111 226L110 225M213.667 225.333C213.222 225.778 214.278 225.722 214.333 225.667C214.778 225.222 213.722 225.278 213.667 225.333M221 225L222 226L221 225M64 226L65 227L64 226M108 226L109 227L108 226M212 226L213 227L212 226M220 226L221 227L220 226M57 227L58 228L57 227M65 227L66 228L65 227M106.667 227.333C106.222 227.778 107.278 227.722 107.333 227.667C107.778 227.222 106.722 227.278 106.667 227.333M211 227L212 228L211 227M219 227L220 228L219 227M58 228L59 229L58 228M66 228L67 229L66 228M75 228L76 229L75 228M104.667 228.333C104.222 228.778 105.278 228.722 105.333 228.667C105.778 228.222 104.722 228.278 104.667 228.333M209.667 228.333C209.222 228.778 210.278 228.722 210.333 228.667C210.778 228.222 209.722 228.278 209.667 228.333M218 228L219 229L218 228M59 229L60 230L59 229M67.6667 229.333C67.2222 229.778 68.2778 229.722 68.3333 229.667C68.7778 229.222 67.7222 229.278 67.6667 229.333M76 229L77 230L76 229M102.667 229.333C102.222 229.778 103.278 229.722 103.333 229.667C103.778 229.222 102.722 229.278 102.667 229.333M208 229L209 230L208 229M217 229L218 230L217 229M69 230L70 231L69 230M77 230L78 231L77 230M99.6667 230.333C99.2222 230.778 100.278 230.722 100.333 230.667C100.778 230.222 99.7222 230.278 99.6667 230.333M207 230L208 231L207 230M62 231L63 232L62 231M70.6667 231.333C70.2222 231.778 71.2778 231.722 71.3333 231.667C71.7778 231.222 70.7222 231.278 70.6667 231.333M79.6667 231.333C79.2222 231.778 80.2778 231.722 80.3333 231.667C80.7778 231.222 79.7222 231.278 79.6667 231.333M96 231C97.2484 231.685 97.5484 231.749 99 232C97.7517 231.315 97.4516 231.251 96 231M205 231L206 232L205 231M214 231L215 232L214 231M63 232L64 233L63 232M72 232L73 233L72 232M81 232C82.769 232.779 84.0359 232.912 86 233C84.231 232.221 82.9641 232.088 81 232M91 232C92.769 232.779 94.0359 232.912 96 233C94.2309 232.221 92.9641 232.088 91 232M204 232L205 233L204 232M213 232L214 233L213 232M73.6667 233.333C73.2222 233.778 74.2778 233.722 74.3333 233.667C74.7778 233.222 73.7222 233.278 73.6667 233.333M202.667 233.333C202.222 233.778 203.278 233.722 203.333 233.667C203.778 233.222 202.722 233.278 202.667 233.333M66 234L67 235L66 234M75 234C76.2228 235.195 76.42 235.316 78 236C76.7772 234.805 76.58 234.684 75 234M200.667 234.333C200.222 234.778 201.278 234.722 201.333 234.667C201.778 234.222 200.722 234.278 200.667 234.333M210 234L211 235L210 234M67 235L68 236L67 235M197 237C198.58 236.316 198.777 236.195 200 235C198.42 235.684 198.223 235.805 197 237M69 236L70 237L69 236M79 236L80 237L79 236M207 236L208 237L207 236M70.6667 237.333C70.2222 237.778 71.2778 237.722 71.3333 237.667C71.7778 237.222 70.7222 237.278 70.6667 237.333M80.6667 237.333C80.2222 237.778 81.2778 237.722 81.3333 237.667C81.7778 237.222 80.7222 237.278 80.6667 237.333M195.667 237.333C195.222 237.778 196.278 237.722 196.333 237.667C196.778 237.222 195.722 237.278 195.667 237.333M72 238L73 239L72 238M82.6667 238.333C82.2222 238.778 83.2778 238.722 83.3333 238.667C83.7778 238.222 82.7222 238.278 82.6667 238.333M193.667 238.333C193.222 238.778 194.278 238.722 194.333 238.667C194.778 238.222 193.722 238.278 193.667 238.333M204 238L205 239L204 238M73.6667 239.333C73.2222 239.778 74.2778 239.722 74.3333 239.667C74.7778 239.222 73.7222 239.278 73.6667 239.333M84 239L85 240L84 239M191.667 239.333C191.222 239.778 192.278 239.722 192.333 239.667C192.778 239.222 191.722 239.278 191.667 239.333M202 239L203 240L202 239M75 240L76 241L75 240M86.6667 240.333C86.2222 240.778 87.2778 240.722 87.3333 240.667C87.7778 240.222 86.7222 240.278 86.6667 240.333M189.667 240.333C189.222 240.778 190.278 240.722 190.333 240.667C190.778 240.222 189.722 240.278 189.667 240.333M200.667 240.333C200.222 240.778 201.278 240.722 201.333 240.667C201.778 240.222 200.722 240.278 200.667 240.333M77 241L78 242L77 241M88.6667 241.333C88.2222 241.778 89.2778 241.722 89.3333 241.667C89.7778 241.222 88.7222 241.278 88.6667 241.333M187.667 241.333C187.222 241.778 188.278 241.722 188.333 241.667C188.778 241.222 187.722 241.278 187.667 241.333M199 241L200 242L199 241M79 242L80 243L79 242M90.6667 242.333C90.2222 242.778 91.2778 242.722 91.3333 242.667C91.7778 242.222 90.7222 242.278 90.6667 242.333M184.667 242.333C184.222 242.778 185.278 242.722 185.333 242.667C185.778 242.222 184.722 242.278 184.667 242.333M197 242L198 243L197 242M81 243L82 244L81 243M93.6667 243.333C93.2222 243.778 94.2778 243.722 94.3333 243.667C94.7778 243.222 93.7222 243.278 93.6667 243.333M182.667 243.333C182.222 243.778 183.278 243.722 183.333 243.667C183.778 243.222 182.722 243.278 182.667 243.333M195 243L196 244L195 243M83 244L84 245L83 244M95 244C96.2484 244.685 96.5484 244.749 98 245C96.7517 244.315 96.4516 244.251 95 244M180.667 244.333C180.222 244.778 181.278 244.722 181.333 244.667C181.778 244.222 180.722 244.278 180.667 244.333M193 244L194 245L193 244M85 245L86 246L85 245M98 245C99.2484 245.685 99.5484 245.749 101 246C99.7517 245.315 99.4516 245.251 98 245M176 245C177.248 245.685 177.548 245.749 179 246C177.752 245.315 177.452 245.251 176 245M191 245L192 246L191 245M87 246L88 247L87 246M101.667 246.333C101.222 246.778 102.278 246.722 102.333 246.667C102.778 246.222 101.722 246.278 101.667 246.333M173 246C174.248 246.685 174.548 246.749 176 247C174.752 246.315 174.452 246.251 173 246M189 246L190 247L189 246M89.6667 247.333C89.2222 247.778 90.2778 247.722 90.3333 247.667C90.7778 247.222 89.7222 247.278 89.6667 247.333M105.667 247.333C105.222 247.778 106.278 247.722 106.333 247.667C106.778 247.222 105.722 247.278 105.667 247.333M170 247C171.248 247.685 171.548 247.749 173 248C171.752 247.315 171.452 247.251 170 247M186.667 247.333C186.222 247.778 187.278 247.722 187.333 247.667C187.778 247.222 186.722 247.278 186.667 247.333M92 248L93 249L92 248M107 248C108.506 248.683 109.315 248.826 111 249C109.494 248.317 108.685 248.174 107 248M166 248C167.248 248.685 167.548 248.749 169 249C167.752 248.315 167.452 248.251 166 248M184 248L185 249L184 248M94.6667 249.333C94.2222 249.778 95.2778 249.722 95.3333 249.667C95.7778 249.222 94.7222 249.278 94.6667 249.333M112 249C113.506 249.683 114.315 249.826 116 250C114.494 249.317 113.685 249.174 112 249M161 249C162.506 249.683 163.315 249.826 165 250C163.494 249.317 162.685 249.174 161 249M181.667 249.333C181.222 249.778 182.278 249.722 182.333 249.667C182.778 249.222 181.722 249.278 181.667 249.333M97.6667 250.333C97.2222 250.778 98.2778 250.722 98.3333 250.667C98.7778 250.222 97.7222 250.278 97.6667 250.333M117 250C118.506 250.683 119.315 250.826 121 251C119.494 250.317 118.685 250.174 117 250M155 250C156.769 250.779 158.036 250.912 160 251C158.231 250.221 156.964 250.088 155 250M178.667 250.333C178.222 250.778 179.278 250.722 179.333 250.667C179.778 250.222 178.722 250.278 178.667 250.333M100.667 251.333C100.222 251.778 101.278 251.722 101.333 251.667C101.778 251.222 100.722 251.278 100.667 251.333M123 251C125.613 252.098 128.165 251.993 131 252C128.387 250.902 125.835 251.007 123 251M145 251C147.89 252.213 150.874 251.998 154 252C151.11 250.787 148.126 251.002 145 251M175.667 251.333C175.222 251.778 176.278 251.722 176.333 251.667C176.778 251.222 175.722 251.278 175.667 251.333M103 252C104.248 252.685 104.548 252.749 106 253C104.752 252.315 104.452 252.251 103 252M171 252C172.248 252.685 172.548 252.749 174 253C172.752 252.315 172.452 252.251 171 252M107.667 253.333C107.222 253.778 108.278 253.722 108.333 253.667C108.778 253.222 107.722 253.278 107.667 253.333M168.667 253.333C168.222 253.778 169.278 253.722 169.333 253.667C169.778 253.222 168.722 253.278 168.667 253.333M111 254C112.248 254.685 112.548 254.749 114 255C112.752 254.315 112.452 254.251 111 254M163 254C164.248 254.685 164.548 254.749 166 255C164.752 254.315 164.452 254.251 163 254M116 255C117.506 255.683 118.315 255.826 120 256C118.494 255.317 117.685 255.174 116 255M158 255C159.248 255.685 159.548 255.749 161 256C159.752 255.315 159.452 255.251 158 255M123 256C125.052 256.874 126.747 256.953 129 257C126.948 256.126 125.253 256.047 123 256M148 256C150.052 256.874 151.747 256.953 154 257C151.948 256.126 150.253 256.047 148 256z"/>
</g>
</svg>
